<?xml version="1.0" encoding="utf-8"?>
<!-- Generator: Adobe Illustrator 24.3.0, SVG Export Plug-In . SVG Version: 6.00 Build 0)  -->
<svg version="1.1" id="Calque_1" xmlns="http://www.w3.org/2000/svg" xmlns:xlink="http://www.w3.org/1999/xlink" x="0px" y="0px"
	 viewBox="0 0 30 30" style="enable-background:new 0 0 30 30;" xml:space="preserve" width="50" height="50">
<g>
	<path d="M18.23,24.13c0.14,0.01,0.26-0.12,0.45-0.07c-0.08,0.1-0.22,0.09-0.28,0.2c0.1,0.17,0.22,0.33,0.36,0.48l-0.01-0.01
		c0.1,0.23,0.26,0.41,0.45,0.54l-0.03-0.01c0.01-0.07,0.02-0.14,0.03-0.22c0.1-0.05,0.2-0.1,0.3-0.15c0.17,0.02,0.34,0.06,0.42,0.24
		c0.11-0.05-0.02-0.21,0.13-0.23c0.08,0.28,0.28,0.34,0.6,0.17c0.15,0.14,0.24,0.31,0.35,0.47c-0.22,0.19-0.57-0.39-0.82-0.22
		c0.11,0.08,0.2,0.17,0.28,0.29l0.01-0.01c-0.38,0.01-1.07-0.41-0.87,0.29c-0.04,0.15-0.21,0.1-0.27,0.2c0.07,0.55,1-0.2,0.85,0.66
		c-0.47,0.37-0.9-0.71-1.06-0.84c-0.12,0.08-0.23,0.18-0.33,0.29c0.1,0.12,0.19,0.25,0.27,0.38c-0.24,0.01-0.45-0.06-0.62-0.23
		c-0.13-0.04-0.22,0.07-0.37-0.04c-0.03-0.04-0.1-0.14-0.14-0.2c-0.34-0.11-0.63,0.04-0.92,0.15c0.14-0.09,0.2-0.22,0.19-0.39
		c0.07,0,0.14,0.03,0.2-0.03c-0.02-0.13-0.08-0.11-0.2,0.04c-0.07,0.01-0.14,0.02-0.24,0.03c-0.24-0.41-0.45-0.48-0.63-0.21
		l0.01-0.01c-0.09-0.1-0.2-0.19-0.26-0.34c0.18-0.06,0.84-0.17,0.1-0.27c-0.64-0.4-0.79,0.13-1.52,0.4
		c0.15,0.06-0.42-0.59-0.41-0.51c0.18-0.14,0.3,0.08,0.47,0.08c0.06-0.14-0.12-0.2-0.1-0.31l-0.01,0.01
		c0.24,0.02,0.47-0.01,0.7-0.09c0.09,0.2,0.18,0.18,0.27-0.04c-0.09,0.01-0.19,0.03-0.28,0.05c-0.04-0.12-0.14-0.17-0.26-0.18
		l0.01,0.01c0.09-0.14-0.01-0.26-0.05-0.38c0.08-0.05,0.15-0.1,0.22-0.14c0,0,0.01,0.01,0.02,0.02c-0.01-0.01-0.02-0.01-0.02-0.01
		c-0.13-0.31-2.83-0.15-1.58,0.04c0.01,0.05,0.02,0.08,0.03,0.12l0.01-0.01c-0.15-0.04-0.3-0.08-0.44-0.12
		c-0.05,0.19-0.13,0.37-0.24,0.53c-0.79,0.15-1.31,0.37-2.1,0.17c-0.06-0.07-0.05-0.13-0.01-0.22c0.16,0.07,0.31,0.24,0.52,0.08
		c-0.44-0.27-1.77-1.32-0.56-0.62c-0.01,0,0.03,0.04-0.01,0.01c-0.01-0.13,0.12-0.14,0.17-0.22c-0.35-0.13-0.68-0.07-1.02,0.06
		L10,23.81c-0.19-0.27-0.45-0.39-0.78-0.38c-0.02-0.1,0.09-0.13,0.13-0.22c0.43,0.17,0.88,0.05,1.33,0.08l-0.01-0.01
		c0.02,0.08,0.02,0.17,0.11,0.23c0.17-0.04,0.35-0.08,0.46-0.26c1.06,0.62,0.63-0.43-0.82-0.4l0.01,0.01
		c0.07-0.16,0.09-0.32,0.01-0.49c-0.12,0.08,0.01,0.18-0.08,0.27c-0.12,0.05-0.22-0.02-0.3-0.11c-0.01-0.13,0.16-0.14,0.14-0.26
		c-0.19-0.13-0.41-0.1-0.65,0.1c-0.13,0.15-0.13,0.33-0.11,0.5c-0.69,0.39,0.36-1.11,0.33-1.24c-0.55-0.58,1.14,0.49,1.14-0.4
		c-0.23,0-0.28,0.02-0.57,0.21c-0.22-0.04-0.39-0.14-0.44-0.38c-0.35,0.08-0.68,0.12-1-0.06c-0.03,0.15-0.11,0.26-0.25,0.32
		c-0.06,0.45,0.48,0.4,0.57,0.69c-0.13,0.17-0.32,0.13-0.5,0.13c0,0.1,0,0.16,0,0.24c-0.17,0.06-0.66,0.07-0.89,0.12l0.01,0.01
		c-0.08-0.32-0.31,0.03-0.47,0.01c-0.12-0.25-0.23-0.2-0.32,0.14c-0.39-0.24-0.33-0.5,0.03-0.65c0.19,0.1,0.39,0.25,0.63,0.1
		c0.04-0.19-0.15-0.25-0.17-0.39c0.17-0.04,0.32,0.01,0.45,0.15c-0.02,0.06-0.24-0.57-0.2-0.53c-0.07-0.04-0.16-0.09-0.24-0.14
		c-0.11,0.09,0.03,0.18,0,0.28c-0.2,0-0.23-0.19-0.34-0.29c-0.17,0.08-0.22,0.24-0.29,0.38c-0.16,0.06-0.29,0-0.43,0
		c-0.06-0.07-0.11-0.14-0.14-0.18c-0.14-0.01-0.2,0.05-0.26,0.11c0.05,0.47,0.81,0.07,0.98,0.3c-0.19,0.13-0.41,0.15-0.61,0.2
		c-0.09,0.14-0.02,0.3-0.13,0.43c-0.17,0-0.19-0.18-0.31-0.25c0.05-0.06,0.09-0.1,0.13-0.15l-0.01,0.01
		c0.05-0.03,0.08-0.08,0.08-0.15c-0.06-0.13-0.2-0.18-0.3-0.25c-0.15-0.04-0.29,0.09-0.43,0c0.06-0.14,0.06-0.14,0.24-0.24
		c-0.15-0.21-0.37-0.32-0.66-0.34c0.15-0.08,0.24-0.03,0.29,0.14c0.25-0.04,0.49-0.08,0.73-0.13c0.02-0.15-0.14-0.2-0.12-0.33
		l-0.01,0.01c0.45-0.1,0.03-0.25-0.09-0.27l0.01,0.01c0.16-0.36,0.95-0.09,1.22-0.13c0.01-0.19-0.46-0.07-0.08-0.36
		c0-0.13,0-0.27,0.05-0.39c-0.13-0.14-0.17,0.08-0.27,0.03c-0.13-0.16,0.25-0.15,0.43,0.24c0.27,0.05,0.49-0.08,0.71-0.23
		c0.01-0.07,0.01-0.14,0.02-0.21l-0.01,0.01c0.16,0.04,0.5,0.41,0.65,0.34c0.15-0.49-0.21-0.19,0.3-0.3
		c0.03-0.06,0.07-0.11,0.1-0.17c0.01-0.17-0.85-0.09-0.91-0.12c-0.05-0.47,0.04-0.38-0.49-0.89l0.01,0.01
		c0.01-0.06,0.01-0.11,0.01-0.18c0.17,0.01,0.23,0.18,0.36,0.23c0.33-0.41-0.46-0.65-0.68-0.86c-0.13,0.08-0.25,0.14-0.4,0.23
		c-0.08-0.21,0.09-0.39-0.02-0.58c-1.17-0.72-2.67-0.14-3.98-1.37c-0.15-0.04-0.25,0.14-0.42,0.08c-0.21-0.34-0.24-0.69-0.08-1.05
		c-0.12-0.25-0.26-0.29-0.42-0.11c-0.08-0.12,0-0.24,0-0.36c-0.1-0.11-0.18-0.01-0.25,0.03c-0.18-0.13,0.03-0.24-0.01-0.38
		c-0.33-0.06-0.55-0.23-0.66-0.52c0.12-0.05,0.25-0.09,0.38-0.14l0.01,0.02c-0.06-0.05-0.1-0.12-0.13-0.2c0,0,0.76-0.55,0.05-0.17
		c-0.16-0.06-0.3-0.19-0.49-0.17c0-0.22,0-0.22,0.22-0.29c-0.01-0.24,0.12-0.33,0.37-0.27c0.04-0.06,0.08-0.11,0.12-0.17
		c0.15-0.06,0.31,0.11,0.45-0.02c-0.08-0.05-0.16-0.11-0.24-0.17c0.19-0.32,0.22-0.34,0.69-0.35c0.1-0.21,0.1-0.21,0.36-0.31
		c-0.03-0.25,0.09-0.32,0.35-0.22c0-0.15-0.19-0.23-0.24-0.38c0.03-0.02,0.07-0.03,0.11-0.05c0.08,0.09,0.15,0-0.01,0.01
		c-0.01-0.11-0.15-0.17-0.12-0.31c0.17-0.02,0.26,0.18,0.44,0.15c0.1-0.15-0.09-0.21-0.13-0.32c0.17-0.06,0.34-0.12,0.5-0.18
		c0.13,0.04,0.15,0.14,0.17,0.24l0.01-0.01c-0.14-0.04-0.28-0.09-0.38,0.07c0.36,0.89,1.08-0.25,1.25-0.5
		C4.92,9.85,5.09,9.86,5.26,9.8c0.06,0.09,0.06,0.2,0.18,0.23c-0.06,0.14-0.19,0.22-0.32,0.32c0.28,0.1,0.28,0.1,0.44-0.22
		c-0.04-0.03-0.09-0.06-0.13-0.09C5.52,9.9,5.69,9.94,5.8,9.81c0.09,0.06,1.27,0.29,1.45,0c0,0-1.02-0.46-1.12-0.49
		c0.12-0.19,0.26-0.23,0.41-0.24c0.04,0.03,0.03,0.03-0.01,0.01c0-0.12,0.06-0.18,0.18-0.18c0,0.03,0.01,0.04,0.03,0.04
		c0,0-0.03-0.02-0.04-0.03C6.86,8.37,8.16,8.58,8.49,8.8C8.23,9.03,7.93,9.05,7.56,8.85C7.54,8.99,7.61,9.08,7.67,9.17L7.66,9.17
		c0.03,0.03,0.06,0.06,0.1,0.1L7.74,9.25c0.03,0.05,0.07,0.05,0.1,0L7.83,9.26c0.12-0.04,0.14-0.17,0.24-0.24
		c0.66,0.04,1.08-0.08,1.69,0.23C9.86,8.99,9.55,9.04,9.5,8.91c0.12-0.16,0.27-0.29,0.45-0.37c0.24,0.1,0.49,0.18,0.75,0.22
		c0.11-0.31,0.38-0.13,0.58-0.17c-0.04-0.13-0.13-0.2-0.28-0.22c0.17,0.05,0.34,0.03,0.5-0.06c0.13,0.02,0.09,0.18,0.2,0.21
		c0.07-0.09,0.15-0.16,0.27-0.12L11.96,8.4c0.11,0.18,0.23,0.17,0.35-0.02c-0.02-0.2-0.47-0.37,0.34-0.33
		c0.06,0.04,0.11,0.13,0.23,0.08c-0.07-0.08-0.16-0.06-0.23-0.07c-0.01-0.12-0.38-0.76-0.48-0.83c-0.19-0.03-0.26,0.14-0.37,0.23
		c-0.03-0.16,0.01-0.28,0.11-0.37l-0.01,0.03c-0.12,0.02-0.22-0.03-0.31-0.1c-0.24,0.2-0.24,0.2-0.1,0.47
		c0.11-0.01,0.21-0.07,0.33-0.03c0,0.06-0.15,0.93-0.24,0.38c-0.27-0.02-0.53-0.07-0.8-0.13l0.01,0.01
		c0.04-0.04,0.07-0.09,0.11-0.14c-0.03-0.08-0.01-0.64-0.2-0.55c-0.02-0.04-0.05-0.06-0.08-0.04c0.03,0.01,0.06,0.02,0.09,0.03
		c-0.08,0.4-2.12-0.06-2.54,0.24c-0.32-0.03-0.97-0.2-1.07-0.27c-0.25,0.15-0.55,0.2-0.85,0.25C6.04,7.48,5.89,7.75,5.8,8.05
		c0.12,0.16,0.36,0.03,0.45,0.21c0.01,0.19-0.77-0.07-0.82-0.21C5.75,8,5.45,7.56,5.43,8.06C5.32,8.13,5.38,8.28,5.3,8.37
		C5.13,8.38,5.2,8.22,5.15,8.16C4.97,8.17,5.06,8.32,5.05,8.41c-1.03-0.3,0.5-1.87,0.93-1.94c0.98-1.39,5.25-3.7,7.7-3.01
		c0.01,0.02,0.05,0.08,0.07,0.12c0.72,0,1.43-0.26,2.18-0.25l-0.01-0.01c0.3,0,0.61,0,0.91-0.02c0.48-0.24,2.22-0.05,2.52-0.53
		c0.24-0.02,3.7,0.18,3.72,0.32c-0.22,0.1-0.22,0.1-0.44,0.1c0.26,0.35,0.68,0.35,0.75-0.08c0.18,0.03,0.35,0.02,0.52-0.03
		c0.13,0.39-0.81-0.06-0.33,0.51c0.29,0,0.61,0.41,0.9,0.34c0.02-0.16-0.14-0.15-0.22-0.21c0.08-0.09,0.47,0,0.48-0.14
		c-0.27,0.05-0.49-0.01-0.67-0.19c0.28-0.2,0.63-0.12,0.94-0.19c0.16,0.15,0.35,0.04,0.52,0.05c0.04,0.13-0.64,0.47-0.74,0.63
		c0.03,0.08,0.18,0.04,0.17,0.17c-0.59,0.85,0.48,0.84-0.51,1.01c0.02,0.18-0.06,0.26-0.25,0.22c-0.1,0.16-0.08,0.34,0.07,0.53
		l0.01-0.01c0,0-1.25,0.05-1.22,0.04c0.2,0.12,0.43,0.19,0.66,0.19c0.05,0.06,0.11,0.13,0.16,0.19c0.39-0.04,0.56,0.01,0.94,0.29
		c-0.03,0.09-0.13,0.01-0.2,0.1c-0.01,0.2,0.17,0.44-0.06,0.68c0.09,0.06,0.17,0.12,0.25,0.17c-0.06,0.07-0.09,0.12-0.13,0.16
		l0.01-0.01c-0.15-0.04-0.3-0.04-0.44-0.05c-0.02,0.08,0.73,0.76,0.74,0.82c-0.21,0.13-0.28,0.09-0.2-0.12
		c-0.06-0.08-0.14-0.08-0.23-0.07c-0.06,0.17-0.13,0.33-0.21,0.49c0.21,0.09,0.41,0.08,0.59-0.02c0.66,0.17,0.17,0.28,0.45-0.15
		c0.46,0.18,0.8-0.06,1.28-0.06c-0.06-0.04,0.68,0.56,0.68,0.52C27.12,8.94,26.96,9,26.88,9.18c-0.13,0.01-0.17-0.15-0.29-0.15
		c-0.03,0.02-0.03,0.04,0.01,0.18c-0.04,0.11-0.24,0.03-0.24,0.2c0.14,0.15,0.33,0.15,0.56,0.02l-0.01-0.01
		c-0.01,0.15-0.19,0.2-0.2,0.36c0.24,0.3,1.25,0.07-0.39,0.35c-0.01-0.01-0.01-0.01-0.01-0.01s0.01,0,0.02,0
		c0,0.06-0.01,0.12-0.01,0.17l0.01-0.01c-0.27-0.1-0.49,0.01-0.72,0.12c0.13,0.24,0.13,0.24,0.07,0.45
		c0.24,0.16,4.39,0.58,3.25,1.89c-0.16,0.09-0.42-0.19-0.55,0.1c0.15,0.2,0.15,0.2,0.46,0.28c-0.06,0.23-0.3,0.02-0.39,0.17
		c0.33,0.17,0.27,0.31-0.19,0.43c0.01,0.16-0.04,0.28-0.14,0.37l0.01-0.03c0.15,0.11,0.1,0.3-0.09,0.3c-0.1,0.07-0.02,0.2-0.11,0.28
		c-0.41,0-0.49,0.18-0.24,0.52c0.18-0.06,0.07-0.28,0.25-0.36c0.07,0.08,0.14,0.16,0.2,0.22c0.06,0.14-0.13,0.56,0.26,0.41
		l0.02,0.02l-0.03-0.01c0.08-0.1,0.17-0.13,0.28-0.08l-0.01-0.01c0.12,0.54,0.23,1.08,0.32,1.62c-0.12,0.04-0.21,0.03-0.28-0.07
		c0.02-0.06,0.07-0.03,0.11-0.05c-0.05-0.13-0.06-0.25-0.04-0.38c-0.35-0.04-0.57-0.22-0.68-0.55c-0.08-0.03-0.12,0-0.15,0.08
		c0.05,0.08,0.1,0.16,0.16,0.24c-0.1,0.21-0.26,0.33-0.48,0.34c0.09,0.16,0.24,0.2,0.43,0.1c-0.09,0.1-0.26,0.14-0.26,0.3l0.01-0.01
		c-0.14-0.07-0.24,0.01-0.34,0.09c-1.33-0.61-0.94-0.04-1.76,0.04c-0.09,0.2,0.54,0.64,0.58,0.84c-0.24,0.31-0.68-0.7-0.99-0.1
		l0.01-0.01c-0.21,0.21-0.18,0.42,0.1,0.63c-0.53,0.16-1.36-0.03-1.92,0.01c0.09,0.2,0.14,0.42,0.31,0.58
		c-0.43,0.02-0.85-0.04-1.25-0.18c0.03-0.28-0.21-0.2,0.01-0.01c-0.11,0.87-1.17-0.1-0.08,0.6l-0.01-0.01
		c0.03,0.09,0.04,0.2,0.12,0.27c0.14-0.17,0.29-0.17,0.48-0.02c0.28-0.16,0.58-0.1,0.87,0.01c0.01,0.04,0.02,0.05,0.02,0.05
		c0-0.03-0.01-0.04-0.01-0.04c0.14-0.29,0.31-0.31,0.5-0.05c0.42-0.22,1.38,0.36,1.6,0c0.22-0.03,0.41-0.12,0.59-0.26
		c0.08,0.18,0.08,0.34,0.01,0.51c-0.16,0.02-0.16-0.18-0.3-0.16c-0.05,0.22,0.36,0.51,0.44,0.64c-0.11,0.03-0.2,0.09-0.28,0.18
		c0,0.14,0.21,0.15,0.12,0.32c-0.23-0.04-0.38-0.19-0.53-0.37c-0.23,0.02-0.43,0.14-0.64,0.21c0,0.14,0.02,0.27-0.17,0.29
		c-0.09,0.19-0.24,0.22-0.43,0.17c-0.52,0.01-1.03-0.03-1.55-0.1c0.03-0.2,1.77,1.25,2.01,1.59c-0.2,0.09-0.2,0.09-0.23-0.17
		c-0.21-0.14-0.44-0.26-0.67-0.36c-0.06,0.21,0.19,0.2,0.21,0.34c-0.11,0.07-0.18-0.06-0.27-0.05l0.01,0.01
		c-0.37-0.07-0.75-0.12-1.12-0.16c-0.1-0.27-0.31-0.4-0.62-0.41c0.16,0.27,0.37,0.4,0.63,0.39c0,0.22-0.13,0.33-0.38,0.32
		c0.08,0.17,0.27,0.05,0.34,0.14c0.15-0.2,0.35-0.25,0.61-0.15c-0.12-0.09,0.86,1.05,0.82,0.84c-0.41,0.24-0.7-0.26-1.03-0.34
		c-0.15,0.06-0.23,0.2-0.27,0.37c-0.13-0.07-0.18-0.22-0.36-0.27c-0.77,0.1-1.93-0.99-2.7-0.41c-0.07,0.12,0.12,0.18,0.08,0.3
		c-0.21-0.39-0.48-0.43-0.8-0.12c-0.34-0.12-0.45-0.03-0.34,0.26c-0.27,0.22-0.61,0.05-0.91,0.14c0.01-0.05-0.99,0.64-0.23,0.75
		l-0.01-0.01c-0.06,0.21,0.01,0.38,0.17,0.52c0.21,0.29,0.36-0.14-0.01,0.01c-0.04-0.17-0.04-0.35,0.01-0.53L18.23,24.13z
		 M18.5,25.58l0.01,0.03L18.5,25.58C18.46,25.57,18.46,25.57,18.5,25.58z M22.54,22.58l0.01,0.03L22.54,22.58
		C22.5,22.56,22.5,22.56,22.54,22.58z M28.22,13.46l0.01,0.02L28.22,13.46l-0.02-0.01L28.22,13.46z M5,12.95l0.01,0.01L5,12.95
		l-0.02-0.01L5,12.95z M4.66,10.37l0.02,0.03c-0.02-0.01-0.03-0.03-0.04-0.05L4.66,10.37z M6.98,9.34L7,9.36
		C7,9.36,6.98,9.35,6.98,9.34C6.97,9.34,6.96,9.33,6.95,9.32C6.95,9.32,6.97,9.33,6.98,9.34z M16.52,23.53
		c-0.01-0.04-0.02-0.05-0.03-0.02C16.5,23.52,16.51,23.52,16.52,23.53C16.52,23.62,16.62,23.63,16.52,23.53z M27.52,16.31
		c0,0-0.01-0.01-0.02-0.02c0.01,0.01,0.02,0.01,0.02,0.01c0.03,0.06,0.06,0.08,0.09,0.05C27.6,16.3,27.56,16.32,27.52,16.31z
		 M26.67,14.23c0.03,0.03,0.06,0.06,0.09,0.09c-0.03,0.06-0.06,0.11-0.09,0.17c-0.08,0.08,0,0.14-0.01-0.01
		C27,14.42,26.42,14.23,26.67,14.23z M8.43,9.25 M22.28,5.72c0.03,0.03,0.06,0.06,0.09,0.09c-0.01,0.13-0.07,0.22-0.18,0.27
		l-0.01-0.03c0.18,0.13,0.87,0.31,0.9,0c-0.11-0.13-0.28,0.05-0.39-0.06c-0.02-0.12-0.02-0.26-0.21-0.28
		c-0.03,0.03-0.08,0.07-0.12,0.11c-0.03-0.03-0.12-0.15-0.17-0.13C22.22,5.7,22.25,5.71,22.28,5.72z M19.01,4.01
		c0.05-0.01,0.12,0.03,0.15-0.05C19.1,3.95,19.05,3.96,19.01,4.01l-0.02,0.02L19.01,4.01z M14.2,23.79
		C14.13,23.7,14.05,23.78,14.2,23.79c0.17,0.1,0.18,0.1,0.33-0.01c0.03-0.01,0.06-0.02,0.03-0.01c0.02-0.01,0,0-0.03,0.02
		C14.42,23.79,14.31,23.79,14.2,23.79z M8.61,21.81c-0.02-0.05-0.05-0.06-0.08-0.04C8.56,21.78,8.59,21.79,8.61,21.81
		c0.08,0.12,0.08,0.12,0.2,0.11C8.78,21.83,8.7,21.81,8.61,21.81z M10.51,18.62c-0.08,0.08-0.2,0.09-0.35,0.01
		c-0.09-0.03-0.18-0.05-0.27-0.08c-0.05-0.3-0.2-0.22,0.01-0.01c-0.13,0.17-0.28,0.15-0.45-0.04c-0.05,0.05-0.11,0.1-0.19,0.17
		c-0.41-0.2-0.61-0.1-0.61,0.28c0.26,0.2,0.26,0.2,0.29,0.15c0-0.11-0.15-0.1-0.11-0.22c0.21-0.24,1.26,0.59,1.32-0.25
		C10.27,18.62,10.39,18.62,10.51,18.62z M23.74,5.73c0.06,0.06,0.11,0.13,0.19,0.03C23.87,5.72,23.8,5.73,23.74,5.73
		c-0.07-0.25-0.07-0.25-0.23-0.24C23.57,5.6,23.63,5.69,23.74,5.73z M8.52,17.86l-0.02-0.02L8.52,17.86
		c0.08-0.47-0.31,1.12,0.14,0.21C8.64,17.98,8.59,17.91,8.52,17.86z M26.06,9.6l0.02,0.02c0,0-0.02-0.01-0.03-0.01
		c-0.01-0.22-0.17-0.25-0.34-0.26c-0.04-0.2-0.2-0.07,0.01-0.01C25.79,9.48,25.93,9.54,26.06,9.6z M16,23.87
		c0.22,0.09,0.34,0.04,0.37-0.13C16.2,23.69,16.08,23.73,16,23.87C15.86,23.89,15.94,23.97,16,23.87z M12.65,22.4
		c0.01,0.01,0.01,0.01,0.01,0.01S12.65,22.42,12.65,22.4c-0.03-0.19-0.18-0.28-0.45-0.27C12.29,22.32,12.5,22.32,12.65,22.4z
		 M10.16,8.99c0.1-0.01,0.21,0.06,0.31,0C10.39,8.79,10.29,8.79,10.16,8.99c0.01,0.01-0.01,0.02-0.01,0.03L10.16,8.99z M24.77,8.99
		c-0.13,0-0.27,0-0.46,0c0.16,0.16,0.29,0.2,0.46,0.18c0-0.08-0.01-0.13-0.01-0.19C25.11,9.17,24.92,8.71,24.77,8.99z M14.27,7.2
		c0.05-0.09,0.22-0.07,0.23-0.22c-0.14-0.01-0.24,0.06-0.34,0.12c0.01,0.09,0.07,0.08,0.12,0.1c0.24,0.2,0.24,0.21,0.64,0.19
		C14.81,7.13,14.59,7.07,14.27,7.2z M22.8,21.47c-0.18-0.04-0.37-0.16-0.57-0.01c0.1,0.17,0.27,0.15,0.37,0.21
		C22.71,21.62,22.76,21.55,22.8,21.47l0.02-0.03L22.8,21.47z M24.25,20.7C24.21,20.51,24.14,20.58,24.25,20.7
		c-0.02,0.07-0.11,0.12-0.1,0.23c0.11,0.04,0.22,0.08,0.33,0.13c0.07-0.12,0.11-0.25,0.12-0.39C24.48,20.64,24.38,20.8,24.25,20.7z
		 M22.53,22.85c0.06,0.07,0.06,0.2,0.18,0.21c0.08-0.03,0.1-0.09,0.11-0.17C22.74,22.78,22.63,22.8,22.53,22.85
		c-0.08-0.3-0.59-0.28-0.79-0.13C21.99,22.86,22.26,22.9,22.53,22.85z M17.29,24.55l0.02,0.03L17.29,24.55
		c0.12-0.2,0.3-0.23,0.52-0.1c0.09-0.33-0.11-0.48-0.62-0.45c-0.08,0.07-0.13,0.18-0.25,0.22c-0.02-0.12,0-0.26-0.1-0.36
		c-0.21,0.05-0.38,0.15-0.53,0.31c-0.12-0.07-0.27-0.12-0.42-0.1c-0.06,0.1-0.12,0.19-0.19,0.3c0.09,0.18,0.21,0.24,0.34,0.17
		c-0.16-0.14-0.14-0.25,0.07-0.32c0.42,0.36,0.52,0.38,0.92,0.14C17.12,24.44,17.17,24.55,17.29,24.55z M13.77,7.02L13.75,7
		L13.77,7.02c-0.01,0.09,0.1,0.17,0.03,0.27c-0.16,0-0.27-0.06-0.29-0.23c-0.12-0.01-0.15,0.13-0.27,0.15
		c-0.25-0.15-0.46-0.12-0.63,0.08c0.14,0.11,0.26,0.01,0.38,0.01c0.24,0.19,0.46,0.41,0.78,0.48c0.02-0.85,0.46,0.01,0.62-0.23
		C14.39,7.37,13.91,7.11,13.77,7.02z M17.81,25.07c0.38,0.14,0.78,0.27,1.17,0.39c0.13-0.94-2.19-0.36-2.24-0.34
		C16.69,25.4,17.68,24.98,17.81,25.07C17.63,25.2,17.75,25.24,17.81,25.07z M3.29,13.05c-0.42-0.19,1.01,0.2,0.96,0.25
		c-0.19-0.25-0.44-0.39-0.76-0.43C3.19,12.91,2.42,13.27,3.29,13.05z M12.1,23.6c-0.62-0.37-1.38,0.7-0.28,0.23
		C11.82,23.66,12.03,23.74,12.1,23.6z M7.99,21.15c0.01,0.2,0.02,0.38,0.28,0.44c0.07-0.16,0.3-0.2,0.26-0.46
		C8.35,21.13,8.17,21.08,7.99,21.15z M3.38,13.49 M3.37,13.94c-0.25-0.07-0.5-0.05-0.74,0.06C2.78,14.27,3.29,14.24,3.37,13.94z
		 M10.94,22.55c0.26-0.04,0.45-0.03,0.64-0.15c-0.08-0.19-0.19-0.28-0.39-0.24C11.12,22.27,11.05,22.37,10.94,22.55z M2.44,14.06
		c-0.07-0.22-0.49-0.24-0.7-0.41c-0.03,0.15-0.03,0.15,0.22,0.47C2.1,14.04,2.27,14.07,2.44,14.06z M22.16,22.21
		c-0.15-0.72-0.85-0.18-0.56-0.01C21.73,21.92,21.91,21.93,22.16,22.21z M22.12,18.77c-0.08-0.05-1.05-0.71-0.36,0.08
		C21.88,18.89,21.98,18.82,22.12,18.77z M8.66,9.52c0.25,0.09,0.46,0.05,0.7-0.13C9.17,9.21,8.99,9.17,8.82,9.27
		c-0.02,0.07,0.06,0.13,0,0.2C8.77,9.49,8.72,9.51,8.66,9.52z M8.69,9.83C8.45,9.9,8.15,9.76,7.97,10.09
		C8.25,10.05,8.5,10.06,8.69,9.83z M16.31,24.83c0.05,0.05,0.8,0.03,0.85-0.09C16.88,24.59,16.6,24.62,16.31,24.83z M7.05,20.98
		c-0.09-0.14-0.15-0.24-0.22-0.34C6.54,20.92,6.61,21.03,7.05,20.98z M11.99,21.99 M23.65,17.82 M8.3,20.77
		c-0.36-0.2-0.61-0.14-0.73,0.16C7.82,20.87,8.06,20.82,8.3,20.77z M12.88,7.93c-0.08-0.18-0.07-0.28-0.04-0.39
		c-0.15-0.02-0.29-0.01-0.43,0.03C12.5,7.71,12.65,7.77,12.88,7.93z M23.56,21.8c0.17,0.14,0.31,0.27,0.47,0.41
		C24.03,21.93,23.87,21.79,23.56,21.8z M24.6,18.15c0.13,0.05,0.27,0.1,0.41,0.14C24.97,18.01,24.83,17.96,24.6,18.15z M21.08,21.99
		c-0.1-0.1-0.21-0.1-0.32-0.02c0.03,0.13,0.07,0.2,0.2,0.2C21.03,22.12,21.08,22.06,21.08,21.99z M24.4,9.36
		c-0.22-0.14-0.24-0.13-0.39,0.12C24.16,9.5,24.27,9.42,24.4,9.36z M24.62,17.63c-0.08,0.11-0.25,0.04-0.31,0.18
		c0.14,0.07,0.26,0.06,0.38,0.01C24.72,17.75,24.69,17.71,24.62,17.63z M11.54,24.17c-0.15,0-0.27-0.09-0.42-0.03
		C11.22,24.33,11.26,24.34,11.54,24.17z M17.84,25.59 M28.42,15.72 M3.57,13.5c0.12,0.15,0.12,0.15,0.25,0.17
		C3.84,13.44,3.75,13.39,3.57,13.5z M23.99,18.21c-0.15-0.1-0.24-0.1-0.37-0.03C23.73,18.27,23.83,18.31,23.99,18.21z M10.02,21.72
		 M19.31,18.49 M17.24,23.77c0.16,0.09,0.24,0.02,0.36-0.04C17.46,23.58,17.37,23.67,17.24,23.77z M25.19,20.48 M26.36,20.49
		 M7.46,20.21 M22.05,3.2 M19.39,3.27c-0.07-0.14-0.14-0.13-0.22,0.02C19.25,3.31,19.32,3.33,19.39,3.27z M23,3.6 M10.49,9.29
		 M26.57,9.9c-0.06-0.16-0.14-0.22-0.27-0.17C26.34,9.85,26.43,9.87,26.57,9.9z M24.83,17.27c0.04,0.15,0.12,0.19,0.27,0.2
		C25.04,17.32,24.97,17.27,24.83,17.27z M7.01,8.96 M11.05,6.91 M8.21,22.15c0.27-0.08,0.27-0.08,0.17-0.21
		C8.34,21.99,8.3,22.04,8.21,22.15z M19.56,25.11 M8.26,18.4 M28.69,16.2 M18.63,23.11 M18.77,25.82c0.03-0.01,0.06-0.02,0.08-0.03
		C18.8,25.71,18.69,25.73,18.77,25.82z M18.23,26.07c0.13,0.06,0.13,0.06,0.22,0.01C18.38,26.01,18.3,26.02,18.23,26.07z M23.28,3.7
		c0.05,0.13,0.12,0.13,0.2,0.1C23.43,3.75,23.39,3.7,23.28,3.7z M24.34,4.24 M21.53,5.76 M6.23,12.31 M2.29,14.4 M24.05,7.12
		 M11.03,8.91c0.01-0.03-0.12-0.04-0.04,0.07C11,8.96,11.02,8.94,11.03,8.91z M9.11,9.8 M6.08,10.14c0,0.01-0.06-0.17-0.07,0.01
		C6.03,10.15,6.05,10.14,6.08,10.14z M2.14,12.91c-0.01,0.02-0.02,0.04-0.03,0.06c0.05,0.04,0.08,0.03,0.09-0.04
		C2.18,12.93,2.16,12.92,2.14,12.91z M5.75,13.08c-0.01,0.02-0.02,0.04-0.03,0.07C5.82,13.19,5.85,13.13,5.75,13.08z M2.03,13.21
		 M27.38,16.65 M11.42,21.06c-0.04,0.1,0.03,0.13,0.07,0.03C11.47,21.08,11.45,21.07,11.42,21.06z M11.99,21.06
		c-0.08-0.01-0.14-0.05-0.22,0.05C11.85,21.11,11.9,21.15,11.99,21.06z M23.01,21.97 M13.1,22.41 M20.94,3.3
		c-0.02,0.02-0.03,0.04-0.05,0.06C20.93,3.38,20.98,3.34,20.94,3.3z M17.75,3.49 M22.67,3.59c0-0.01,0.01-0.02,0.01-0.03
		c0,0-0.04-0.01-0.06-0.01C22.6,3.58,22.62,3.6,22.67,3.59z M17.86,3.9c0.01-0.01,0.02-0.01,0.02-0.01
		c-0.03-0.04-0.06-0.04-0.09-0.01C17.82,3.89,17.84,3.89,17.86,3.9z M5.39,7.56 M13.21,7.83 M7.31,9.33H7.28
		c-0.01,0.05,0,0.07,0.04,0.06C7.32,9.37,7.31,9.35,7.31,9.33z M6.57,12.19c-0.02-0.01-0.04-0.02-0.04-0.02
		C6.49,12.21,6.55,12.25,6.57,12.19z M4.21,13.66c0.01-0.02,0.02-0.04,0.03-0.06C4.17,13.56,4.16,13.68,4.21,13.66z M23.93,14.8
		 M25.62,16.8c-0.06,0.01-0.01,0.07,0.03,0.06C25.64,16.84,25.63,16.82,25.62,16.8z M25.38,16.85c-0.01,0.01-0.02,0.01-0.02,0.01
		C25.39,16.94,25.46,16.91,25.38,16.85z M25.28,17.3l0.04-0.01c-0.02-0.06-0.04-0.08-0.08-0.04C25.25,17.27,25.27,17.29,25.28,17.3z
		 M9.04,18.06 M21.62,19.2c-0.06,0.02-0.07,0.05-0.03,0.08C21.64,19.26,21.66,19.23,21.62,19.2z M6.75,21.3
		c-0.02,0.06-0.01,0.08,0.03,0.08C6.81,21.32,6.8,21.29,6.75,21.3z M15.08,21.3 M20.27,22.05l0.04-0.02
		c-0.04-0.03-0.07-0.03-0.1-0.01C20.2,22.02,20.25,22.04,20.27,22.05z M10.19,23.51 M18.11,25.52c0.02-0.05,0-0.06-0.06-0.05
		C18.04,25.51,18.06,25.53,18.11,25.52z M14.14,3.63C14.12,3.6,14.1,3.6,14.08,3.62L14.14,3.63z M18.76,3.96l-0.03,0.01l0.03,0.01
		V3.96z M21.33,5.68l0,0.03l0.03-0.01L21.33,5.68z M18.41,6.13l0.03-0.01c-0.02,0-0.04,0-0.05-0.01L18.41,6.13z M11.24,7.39
		c0.02-0.02,0.01-0.03,0.01-0.03C11.21,7.37,11.22,7.38,11.24,7.39z M7.26,9.1c0.03-0.03,0.03-0.04-0.01-0.03
		C7.26,9.07,7.26,9.09,7.26,9.1z M25.97,9.22L26,9.21L25.97,9.2V9.22z M28.84,12.4c0,0-0.03,0-0.05-0.01
		C28.81,12.42,28.83,12.42,28.84,12.4z M6.56,12.56l-0.03,0.01l0.03,0.01V12.56z M1.99,13.62C2,13.61,2.01,13.61,2.02,13.6
		C2,13.58,1.98,13.58,1.96,13.6C1.96,13.6,1.98,13.61,1.99,13.62z M5.09,13.61l0.03-0.01c-0.01-0.02-0.03-0.03-0.05-0.01L5.09,13.61
		z M27.04,14.31c-0.02,0.02-0.01,0.04,0.01,0.04C27.08,14.32,27.07,14.31,27.04,14.31z M27.08,14.81l0.03-0.01l-0.03-0.02V14.81z
		 M25.88,16.97l0.03-0.01l-0.03-0.01V16.97z M24.44,18.34l0-0.02l-0.03,0.01L24.44,18.34z M9.39,19.17l-0.03,0.01l0.03,0.01
		L9.39,19.17z M25.28,19.86l0,0.03l0.03-0.01L25.28,19.86z M8.02,20.12c-0.01,0-0.02,0.01-0.03,0.01c0,0.03,0.01,0.04,0.04,0.02
		C8.03,20.14,8.02,20.13,8.02,20.12z M6.37,20.55l0,0.03l0.04-0.01L6.37,20.55z M11.53,20.81l0,0.02l0.03-0.01L11.53,20.81z
		 M11.21,21.46l0.01,0.03l0.02-0.03H11.21z M13.49,22.11l0.03,0.02l0-0.03L13.49,22.11z M23.61,22.11
		c-0.02-0.03-0.04-0.03-0.06-0.01C23.57,22.13,23.59,22.13,23.61,22.11z M11.81,22.3 M10.78,22.54 M18.22,25.73 M18.01,25.8
		c-0.03-0.02-0.04-0.01-0.04,0.01C17.99,25.83,18.01,25.83,18.01,25.8z M19.79,26.51v-0.03l-0.03,0.01L19.79,26.51z"/>
	<path d="M25.81,4.01c0.3-0.95,1.21-0.14,1.62,0.04c0.14-0.06,0.29-0.08,0.45-0.07c0.04,0.27,0.06,0.56,0.41,0.7
		c-0.2,0.09-0.36,0.21-0.61,0.12c-0.07-0.13-0.17-0.28-0.36-0.35c-0.25,0.44-0.56,0.34-0.91-0.31C26.22,4.02,26.01,3.97,25.81,4.01
		L25.81,4.01z M26.95,4.03"/>
	<path d="M7.83,22.49c0.07,0.17,0.9,0.17,1.05,0.21c-0.11,0.18-0.3,0.23-0.55,0.15c-0.11,0.25,0.63,0.17,0.73,0.26
		c-0.2,0.06-0.3,0.19-0.3,0.4c-0.05,0.01-0.32-0.28-0.39-0.31c-0.07,0.16-0.07,0.16-0.19,0.22c-0.03-0.45-0.23-0.67-0.61-0.68
		l0.01,0.01C7.59,22.52,7.59,22.52,7.83,22.49L7.83,22.49z"/>
	<path d="M22.97,24.3c-0.18,0.05-0.33-0.05-0.46-0.28c-0.29-0.03-0.57-0.11-0.83-0.25c-0.08,0.02-0.04,0.1-0.09,0.14
		c-0.16-0.06-0.18-0.2-0.05-0.43C21.9,23.63,22.91,23.7,22.97,24.3L22.97,24.3z"/>
	<path d="M14.63,24.73c-0.47,0.08-0.67,0.02-0.83-0.27c0.32-0.03,0.64-0.07,0.96-0.12c0.12,0,0.21,0.08,0.3,0.15l-0.01-0.01
		C14.92,24.58,14.78,24.66,14.63,24.73L14.63,24.73z"/>
	<path d="M18.93,24.4c0.01-0.07,0.01-0.14,0.02-0.22c0.16-0.04,0.29,0.06,0.43,0.07c0.03-0.04,0.07-0.08,0.13-0.15
		c0.01,0.17,0.14,0.25,0.19,0.38c-0.27,0.03-0.52,0-0.77-0.09L18.93,24.4z"/>
	<path d="M20.02,24.36c0.1,0.13,0.29,0.13,0.3,0.34C19.32,24.78,20.22,23.96,20.02,24.36z"/>
	<path d="M20.76,23.73c0.14-0.12,0.28-0.22,0.43-0.31C21.6,23.64,20.88,24.05,20.76,23.73z"/>
	<path d="M26.27,21.57c-0.12-0.13-0.27-0.2-0.44-0.21c0.04-0.25,0.24-0.29,0.6-0.13C26.4,21.35,26.34,21.46,26.27,21.57z"/>
	<path d="M26.85,5.31c0-0.06,0-0.12,0-0.18l-0.01,0.01c0.07,0,0.82-0.03,0.88-0.01c-0.03,0.14-0.17,0.16-0.26,0.25
		C27.26,5.31,27.05,5.27,26.85,5.31L26.85,5.31z"/>
	<path d="M26.92,9.42c0.08-0.07,0.59-0.32,0.69-0.24C27.65,9.29,27.04,9.47,26.92,9.42L26.92,9.42z"/>
	<path d="M5.52,20.64c-0.27,0.07-0.42-0.05-0.57-0.19c0.09-0.14,0.22-0.1,0.34-0.13C5.35,20.42,5.42,20.52,5.52,20.64z"/>
	<path d="M10.42,22.84c-0.2,0.18-0.45,0.15-0.69,0.17l0.01,0.01c-0.04-0.07-0.08-0.14-0.12-0.21c0.07-0.06,0.14-0.03,0.21-0.04
		l-0.01-0.01C9.98,22.89,10.18,22.92,10.42,22.84L10.42,22.84z"/>
	<path d="M21.72,23.34c-0.23-0.16-0.47-0.3-0.72-0.43C21.5,22.9,21.6,22.96,21.72,23.34z"/>
	<path d="M7.56,18.36c0.04,0.18-0.03,0.37,0.1,0.52c-0.16,0.07-0.17,0.07-0.48,0.04c0.19-0.16,0.28-0.36,0.39-0.55L7.56,18.36z"/>
	<path d="M20.23,23.4c0.14,0.11,0.25,0.17,0.38,0.18c0.05,0.13,0.08,0.27,0,0.43C20.43,23.85,20.3,23.69,20.23,23.4z"/>
	<path d="M25.91,5.89c-0.12,0.21-0.27,0.3-0.45,0.36c-0.09-0.18,0.17-0.23,0.04-0.38C25.65,5.88,25.76,5.89,25.91,5.89z"/>
	<path d="M27.89,8.95c-0.08,0.06-0.16,0.04-0.26,0.03c-0.13-0.16-0.07-0.35-0.05-0.54C27.68,8.62,27.78,8.79,27.89,8.95z"/>
	<path d="M9.42,8.18"/>
	<path d="M25.68,21.9c-0.07-0.21-0.3-0.31-0.38-0.52c0.16,0.01,0.16,0.01,0.48,0.28C25.75,21.73,25.72,21.81,25.68,21.9z"/>
	<path d="M5.95,20.77c-0.08,0.14-0.2,0.22-0.35,0.25c-0.01-0.22,0.08-0.39,0.26-0.5l-0.01-0.01c0.01,0.1,0.03,0.19,0.09,0.27
		L5.95,20.77z"/>
	<path d="M16.34,25.68c0.35,0.09,0.49,0.3,0.43,0.62C16.72,26.28,16.35,25.75,16.34,25.68L16.34,25.68z"/>
	<path d="M22.63,25.28"/>
	<path d="M28.48,17.07c-0.23,0.03-0.47,0.06-0.7,0.1l0.01,0.01c0-0.06,0-0.13-0.01-0.19L27.78,17c0.24-0.08,0.47-0.06,0.69,0.08
		L28.48,17.07z"/>
	<path d="M21.22,25.48c0.02-0.13,0.13-0.2,0.2-0.29c0.11-0.02,0.2,0,0.27,0.09C21.68,25.31,21.26,25.53,21.22,25.48z"/>
	<path d="M18.92,24.38c0.06,0.12,0.12,0.23,0.17,0.35l0.01-0.01c-0.12,0-0.23,0-0.35,0l0.01,0.01c-0.11-0.21-0.06-0.32,0.17-0.34
		L18.92,24.38z"/>
	<path d="M23.43,24.69"/>
	<path d="M20.35,24.16c0.12,0.13,0.25,0.25,0.39,0.36C20.38,24.51,20.36,24.49,20.35,24.16z"/>
	<path d="M26.84,17.51c-0.07-0.07-0.13-0.15-0.2-0.22c0.02-0.09,0.79-0.29,0.19,0.22L26.84,17.51z M26.81,17.29"/>
	<path d="M9.6,8.23c0.2,0.17,0.14,0.3-0.17,0.38C9.53,8.5,9.59,8.37,9.6,8.23z"/>
	<path d="M19.1,27.36c-0.23,0.13-0.39,0.11-0.47-0.04C18.92,27.18,18.97,27.18,19.1,27.36z"/>
	<path d="M26.83,17.5c0.07,0.09,0.13,0.18,0.2,0.27c-0.04,0.08-0.45-0.15-0.47-0.18c0.07-0.09,0.2-0.01,0.28-0.08L26.83,17.5z"/>
	<path d="M6.2,19.22c0.03-0.03,0.58-0.03,0.6,0.07C6.43,19.32,6.43,19.32,6.2,19.22z"/>
	<path d="M25.97,6.53c0.16,0.06,0.19,0.19,0.24,0.33C25.95,6.8,25.95,6.8,25.97,6.53z"/>
	<path d="M18.07,24.14c0.01-0.1,0.02-0.2,0.03-0.28c0.1-0.07,0.17-0.05,0.24,0.02c0.02,0.11-0.1,0.16-0.1,0.26l0.01-0.01
		c-0.06,0-0.12,0-0.18,0L18.07,24.14z"/>
	<path d="M5.41,19.95c0.15,0,0.29,0,0.44,0C5.71,20.01,5.57,20.19,5.41,19.95z"/>
	<path d="M4.52,20.31c0.06-0.24,0.18-0.32,0.36-0.24C4.73,20.27,4.73,20.27,4.52,20.31z"/>
	<path d="M8.61,8.63C8.58,8.52,8.49,8.45,8.5,8.34C8.78,8.31,8.81,8.41,8.61,8.63z"/>
	<path d="M25.8,20.77c0.21,0.1,0.37,0.07,0.48,0.22C26.04,21.05,25.94,21.01,25.8,20.77z"/>
	<path d="M4.1,9.64c0.3-0.13,0.46-0.07,0.46,0.2C4.43,9.73,4.27,9.67,4.1,9.64z"/>
	<path d="M19.79,23.96c0.03-0.14,0.54-0.34,0.52-0.03C20.15,24.01,19.96,23.95,19.79,23.96L19.79,23.96z"/>
	<path d="M25.6,6.57c-0.71,0.08-0.59-0.11,0.01-0.03C25.62,6.53,25.61,6.56,25.6,6.57z"/>
	<path d="M21.83,24.09c0.14-0.01,0.22,0.06,0.31,0.13C21.98,24.35,21.87,24.31,21.83,24.09z"/>
	<path d="M24.77,19.42"/>
	<path d="M6.04,8.57c0.01,0.11-0.1,0.13-0.14,0.19C5.78,8.75,5.73,8.68,5.73,8.56C5.83,8.56,5.94,8.52,6.04,8.57z"/>
	<path d="M28.24,18.04c-0.07,0.09-0.21,0.07-0.18,0.22c-0.13-0.09-0.12-0.11,0.04-0.33C28.16,17.92,28.21,17.95,28.24,18.04z"/>
	<path d="M6.7,18.52c0.19-0.07,0.3,0.02,0.33,0.26C6.9,18.72,6.8,18.64,6.7,18.52z"/>
	<path d="M27.11,19.91c0.06-0.1,0.12-0.21,0.17-0.31C27.36,19.84,27.3,20.02,27.11,19.91z"/>
	<path d="M25.74,22.28"/>
	<path d="M9.99,23.8c-0.14,0.1-0.28,0.09-0.45,0.03c0.16-0.17,0.3-0.15,0.45-0.02L9.99,23.8z"/>
	<path d="M9.25,21.35"/>
	<path d="M16.86,26.66"/>
	<path d="M28.82,17.25c-0.18,0.08-0.29,0.03-0.33-0.18l-0.01,0.01C28.6,17.11,28.77,17.06,28.82,17.25L28.82,17.25z"/>
	<path d="M7.93,19.48c-0.12-0.01-0.25,0.03-0.36-0.07c0.21-0.1,0.33-0.08,0.35,0.08L7.93,19.48z"/>
	<path d="M20.34,26.15"/>
	<path d="M26.2,21.76"/>
	<path d="M10.07,8.05C9.95,8.04,9.82,8.04,9.73,7.93C9.97,7.88,9.97,7.88,10.07,8.05L10.07,8.05z"/>
	<path d="M10.76,7.7c-0.02,0.06,0.01,0.14-0.05,0.19c-0.1,0-0.19-0.02-0.21-0.14c0.08-0.08,0.18-0.03,0.27-0.04L10.76,7.7z"/>
	<path d="M26.78,22.1"/>
	<path d="M25.02,21.52"/>
	<path d="M22.45,19.49c0.09-0.15,0.22-0.2,0.38-0.16C22.83,19.51,22.7,19.56,22.45,19.49L22.45,19.49z"/>
	<path d="M24.57,18.9"/>
	<path d="M24.11,18.74"/>
	<path d="M26.29,5.68c0.14-0.07,0.22-0.03,0.3,0.04C26.46,5.78,26.46,5.78,26.29,5.68z"/>
	<path d="M25.48,6.96c-0.19-0.02-0.29-0.03-0.4-0.04c-0.01-0.01-0.02-0.03-0.03-0.04C25.23,6.81,25.37,6.83,25.48,6.96z"/>
	<path d="M10.61,8.48c-0.12,0.09-0.24,0.1-0.36,0.02C10.37,8.49,10.49,8.48,10.61,8.48z"/>
	<path d="M6.69,17.71"/>
	<path d="M24.76,23.8c-0.15,0.01-0.25,0-0.33-0.1C24.57,23.69,24.57,23.69,24.76,23.8z"/>
	<path d="M9.05,8.76c0.01-0.06,0.01-0.13,0.02-0.19C9.2,8.55,9.23,8.61,9.23,8.71C9.18,8.77,9.11,8.74,9.05,8.74L9.05,8.76z"/>
	<path d="M6.72,8.39c-0.13,0-0.23-0.06-0.34-0.15C6.56,8.24,6.56,8.24,6.72,8.39L6.72,8.39z"/>
	<path d="M10.06,8.06c0.1,0.01,0.22-0.03,0.33,0.1C10.23,8.2,10.15,8.13,10.06,8.06L10.06,8.06z"/>
	<path d="M11.25,8.02"/>
	<path d="M27.29,5.79C27.17,5.75,27.1,5.7,27.07,5.6C27.19,5.59,27.25,5.65,27.29,5.79z"/>
	<path d="M25.6,5.52"/>
	<path d="M26.24,4.24"/>
	<path d="M22.98,19.17c0.09,0.02,0.15,0.08,0.18,0.16C23.01,19.31,23.01,19.31,22.98,19.17z"/>
	<path d="M21.25,25.03"/>
	<path d="M25.71,18.68"/>
	<path d="M25.93,18.38"/>
	<path d="M24.16,21.49"/>
	<path d="M6.13,22.06c-0.11-0.01-0.2-0.05-0.25-0.19C6.03,21.87,6.06,21.99,6.13,22.06L6.13,22.06z"/>
	<path d="M9.82,22.76c0.01-0.09-0.1-0.17-0.03-0.29C9.9,22.57,9.9,22.66,9.82,22.76L9.82,22.76z"/>
	<path d="M24.85,22.79c-0.08,0.06-0.16,0.06-0.26,0.01C24.69,22.75,24.77,22.76,24.85,22.79z"/>
	<path d="M20.68,23.09"/>
	<path d="M10.68,23.28c0.07-0.26,0.31-0.04-0.01-0.01L10.68,23.28z"/>
	<path d="M20.97,23.21"/>
	<path d="M23.93,24.1c0.08-0.05,0.15-0.07,0.25-0.01C24.09,24.17,24,24.09,23.93,24.1z"/>
	<path d="M20.95,24.23"/>
	<path d="M21.68,24.9c-0.06-0.01-0.11-0.01-0.16-0.02C21.53,24.74,21.58,24.75,21.68,24.9L21.68,24.9z"/>
	<path d="M17.62,26.66"/>
	<path d="M7.71,7.36"/>
	<path d="M6.43,7.79"/>
	<path d="M6.28,9.53c-0.09,0.16-0.16,0.16-0.27,0.1C6.09,9.6,6.15,9.58,6.28,9.53z"/>
	<path d="M3.11,9.92C3.03,9.95,2.96,9.93,2.9,9.87C2.98,9.83,3.05,9.85,3.11,9.92z"/>
	<path d="M3.87,10.21c0.39,0.08,0.17,0.15,0.01-0.01L3.87,10.21z"/>
	<path d="M1.03,13.24"/>
	<path d="M5.43,18.24"/>
	<path d="M26.46,18.87"/>
	<path d="M5.96,19.16"/>
	<path d="M25.5,19.14"/>
	<path d="M25.1,19.45"/>
	<path d="M27.36,4.97C27.42,4.8,27.55,4.85,27.36,4.97L27.36,4.97z"/>
	<path d="M27.09,4.88c0.09,0.03,0.18,0.06,0.27,0.1l-0.01-0.01C27.22,5.03,27.22,5.03,27.09,4.88L27.09,4.88z"/>
	<path d="M25.86,5.15"/>
	<path d="M26.84,5.31C26.74,5.45,26.47,5.14,26.84,5.31L26.84,5.31z"/>
	<path d="M24.99,7.52c0.06-0.04,0.09-0.03,0.1,0.04C25.03,7.6,25,7.59,24.99,7.52z"/>
	<path d="M12.32,7.91"/>
	<path d="M25.33,8.24c-0.02,0-0.04,0.01-0.07,0.01C25.27,8.08,25.32,8.25,25.33,8.24z"/>
	<path d="M27.04,8.59"/>
	<path d="M9.05,8.74C8.95,8.82,8.89,8.79,8.82,8.71c0.11-0.06,0.16,0.02,0.23,0.05L9.05,8.74z"/>
	<path d="M6.29,8.75C6.21,8.94,6.07,8.78,6.29,8.75L6.29,8.75z"/>
	<path d="M7.67,9.17c-0.01-0.24,0.16,0,0.17,0.09l0.01-0.01c-0.03,0-0.06,0-0.1,0l0.01,0.01C7.72,9.23,7.69,9.2,7.67,9.17L7.67,9.17
		z"/>
	<path d="M26.32,10.29C26.58,10.45,26.36,10.54,26.32,10.29L26.32,10.29z"/>
	<path d="M0.63,13.31c-0.03,0.06-0.07,0.06-0.11,0.01C0.54,13.26,0.58,13.26,0.63,13.31z"/>
	<path d="M7.27,17.8c0.08,0.03,0.09,0.24-0.06,0.04C7.21,17.83,7.25,17.81,7.27,17.8z"/>
	<path d="M27.66,17.99c-0.02-0.03-0.05-0.05-0.07-0.08C27.64,17.88,27.74,17.94,27.66,17.99z"/>
	<path d="M4.28,18.87"/>
	<path d="M3.89,19.35c0.04,0.06,0.03,0.09-0.04,0.1C3.81,19.4,3.82,19.36,3.89,19.35z"/>
	<path d="M26.92,19.45"/>
	<path d="M26.86,19.96"/>
	<path d="M25.26,22.09c0.08,0.01,0.09,0.05,0.05,0.1C25.23,22.19,25.21,22.15,25.26,22.09z"/>
	<path d="M26.49,22.41c-0.06,0.07-0.12,0.11-0.21,0.02C26.35,22.34,26.43,22.44,26.49,22.41L26.49,22.41z"/>
	<path d="M21.89,23.37"/>
	<path d="M24.95,23.32"/>
	<path d="M23.08,23.55c-0.06,0.05-0.11,0.03-0.15-0.06C23,23.45,23.05,23.47,23.08,23.55z"/>
	<path d="M19.05,23.89"/>
	<path d="M20.48,25.94c0.06,0.03,0.11,0.07,0.18,0.11C20.52,26.1,20.52,26.1,20.48,25.94L20.48,25.94z"/>
	<path d="M15.93,3.34C15.86,3.17,16,3.14,15.93,3.34L15.93,3.34z"/>
	<path d="M25.8,4c-0.01,0.08-0.01,0.16-0.1,0.11C25.72,4.06,25.75,4.03,25.8,4L25.8,4z"/>
	<path d="M24.88,4.82c-0.03,0.02-0.05,0.01-0.06-0.04C24.85,4.76,24.87,4.77,24.88,4.82z"/>
	<path d="M24.54,5.84c0.01-0.01,0.03-0.03,0.04-0.05C24.64,5.87,24.62,5.89,24.54,5.84z"/>
	<path d="M25.78,6.83"/>
	<path d="M12.06,7.54"/>
	<path d="M7.4,7.57c0.01,0.01,0.02,0.01,0.02,0.01C7.41,7.65,7.38,7.65,7.36,7.62C7.37,7.6,7.39,7.59,7.4,7.57z"/>
	<path d="M7.79,8.15"/>
	<path d="M26.06,10.63C26.19,10.47,26.22,10.58,26.06,10.63L26.06,10.63z"/>
	<path d="M28.66,15.37c-0.1-0.19,0.12-0.15-0.01-0.01L28.66,15.37z"/>
	<path d="M27.21,17.29"/>
	<path d="M27.29,17.62c-0.02,0.01-0.03,0.02-0.05,0.03C27.18,17.57,27.22,17.57,27.29,17.62z"/>
	<path d="M6.12,17.89c-0.01,0.05-0.04,0.05-0.09,0.01C6.04,17.86,6.07,17.85,6.12,17.89z"/>
	<path d="M6.42,17.91"/>
	<path d="M25.28,17.86c0.06,0.01,0.12-0.03,0.17,0.03C25.37,17.95,25.33,17.89,25.28,17.86L25.28,17.86z"/>
	<path d="M26.94,18.6c-0.01,0.02-0.03,0.03-0.04,0.05C26.85,18.59,26.87,18.57,26.94,18.6z"/>
	<path d="M4.83,19.22c-0.07-0.01-0.11-0.05-0.11-0.11C4.8,19.09,4.84,19.13,4.83,19.22L4.83,19.22z"/>
	<path d="M5.22,19.22c0,0.01-0.01,0.03-0.01,0.03C5.12,19.23,5.14,19.15,5.22,19.22z"/>
	<path d="M24.03,19.24c-0.01-0.02-0.08,0.15-0.06-0.03C23.99,19.22,24.01,19.23,24.03,19.24z"/>
	<path d="M25.78,19.21c-0.02-0.01-0.04-0.02-0.04-0.02c0.01-0.03,0.04-0.03,0.08,0C25.8,19.2,25.78,19.2,25.78,19.21z"/>
	<path d="M5.16,20.01"/>
	<path d="M5.82,20.27c-0.03,0.03-0.06,0.02-0.07-0.04C5.78,20.2,5.81,20.21,5.82,20.27z"/>
	<path d="M26.92,21.08c-0.07-0.06-0.02-0.1,0.03-0.02L26.92,21.08z"/>
	<path d="M6.75,22.6"/>
	<path d="M25.98,22.75C26.14,22.89,26.02,22.91,25.98,22.75L25.98,22.75z"/>
	<path d="M25.3,23.32c-0.04,0.03-0.08,0.03-0.1-0.01C25.24,23.28,25.27,23.28,25.3,23.32z"/>
	<path d="M23.74,23.39c-0.01,0.03-0.04,0.04-0.08,0.01C23.67,23.37,23.7,23.36,23.74,23.39z"/>
	<path d="M25.03,23.61C24.83,23.54,24.94,23.47,25.03,23.61L25.03,23.61z"/>
	<path d="M9.03,24.01c-0.02,0-0.04,0-0.04,0C8.98,23.98,9.02,23.97,9.03,24.01z"/>
	<path d="M14.48,24.24l-0.02,0.03c-0.05-0.02-0.06-0.04-0.03-0.07L14.48,24.24z"/>
	<path d="M21.51,24.17"/>
	<path d="M21.47,24.46l-0.05,0.04C21.37,24.42,21.4,24.41,21.47,24.46z"/>
	<path d="M22.66,24.48c-0.05,0.01-0.07-0.01-0.06-0.05C22.66,24.42,22.68,24.44,22.66,24.48z"/>
	<path d="M22.32,24.82"/>
	<path d="M22.78,25.14"/>
	<path d="M15.64,25.5c-0.01,0.07-0.04,0.08-0.1,0.04C15.55,25.47,15.58,25.46,15.64,25.5z"/>
	<path d="M16.01,25.9c-0.05,0.03-0.08,0.03-0.09-0.01C15.97,25.85,16,25.85,16.01,25.9z"/>
	<path d="M20.92,25.95c-0.02-0.02-0.03-0.03-0.05-0.05c0.03-0.03,0.06-0.01,0.08,0.03L20.92,25.95z"/>
	<polygon points="5.4,5.38 5.38,5.41 5.38,5.38 	"/>
	<path d="M24.34,5.98c-0.06-0.05-0.07-0.11-0.08-0.18l-0.01,0.01C24.31,5.86,24.33,5.92,24.34,5.98L24.34,5.98z"/>
	<polygon points="26.73,6.29 26.76,6.28 26.76,6.31 	"/>
	<polygon points="26.83,6.7 26.87,6.72 26.83,6.73 	"/>
	<path d="M7.93,7.56c0,0,0.01,0.01,0.01,0.02C7.91,7.6,7.9,7.6,7.9,7.57C7.9,7.57,7.92,7.56,7.93,7.56z"/>
	<polygon points="9.53,7.72 9.49,7.72 9.51,7.68 	"/>
	<path d="M7.51,8.08L7.52,8.1C7.49,8.12,7.48,8.11,7.48,8.09L7.51,8.08z"/>
	<polygon points="28.01,8.09 28.05,8.08 28.04,8.11 	"/>
	<path d="M28.74,8.17c0,0.03-0.01,0.03-0.04,0.01C28.71,8.16,28.72,8.16,28.74,8.17z"/>
	<path d="M11.97,8.41C11.98,8.29,12.07,8.31,11.97,8.41L11.97,8.41z"/>
	<path d="M6.3,8.75c0-0.03-0.02-0.08,0.02-0.1C6.35,8.69,6.34,8.72,6.3,8.75L6.3,8.75z"/>
	<polygon points="5.46,8.92 5.48,8.89 5.49,8.92 	"/>
	<path d="M26.06,10.62c-0.01,0.03-0.02,0.07-0.03,0.11C26,10.67,26.05,10.66,26.06,10.62L26.06,10.62z"/>
	<polygon points="1.23,11.54 1.2,11.55 1.21,11.52 	"/>
	<path d="M27.78,17.17C27.67,17.28,27.69,17.17,27.78,17.17L27.78,17.17z"/>
	<polygon points="26.44,17.96 26.43,17.93 26.46,17.94 	"/>
	<polygon points="25.77,18.01 25.78,18.04 25.75,18.03 	"/>
	<path d="M27.27,18.19c-0.03-0.01-0.06-0.02-0.09-0.03C27.21,18.14,27.24,18.15,27.27,18.19L27.27,18.19z"/>
	<polygon points="6.32,18.8 6.33,18.77 6.34,18.8 	"/>
	<path d="M27.07,18.98c0,0-0.01,0.01-0.02,0.02c0,0-0.02-0.04,0.01-0.05C27.05,18.95,27.06,18.97,27.07,18.98z"/>
	<path d="M7.01,19.13c0.03,0,0.03,0.02,0.01,0.04C7,19.17,6.99,19.15,7.01,19.13z"/>
	<path d="M26.27,19.1c-0.02,0.02-0.04,0.01-0.04,0.01C26.24,19.08,26.26,19.08,26.27,19.1z"/>
	<path d="M5.4,19.33c-0.02,0.01-0.03,0.01-0.03-0.02C5.39,19.29,5.4,19.3,5.4,19.33z"/>
	<path d="M24.25,19.32C24.42,19.33,24.34,19.41,24.25,19.32L24.25,19.32z"/>
	<path d="M26.8,20.14c0.02,0.02,0.02,0.04,0.02,0.04C26.76,20.18,26.77,20.16,26.8,20.14z"/>
	<polygon points="24.47,21.58 24.46,21.54 24.48,21.55 	"/>
	<path d="M24.34,22.49c-0.01,0.03-0.02,0.06-0.03,0.09C24.28,22.55,24.3,22.52,24.34,22.49L24.34,22.49z"/>
	<path d="M25.99,22.74c-0.03,0-0.08,0.01-0.1-0.03C25.93,22.69,25.96,22.7,25.99,22.74L25.99,22.74z"/>
	<path d="M7.58,22.75c-0.02,0.05-0.06,0.07-0.09,0.04C7.52,22.78,7.55,22.77,7.58,22.75L7.58,22.75z"/>
	<path d="M19.79,23.95c-0.02,0.06-0.05,0.07-0.09,0.05C19.71,23.96,19.76,23.97,19.79,23.95L19.79,23.95z"/>
	<polygon points="23.32,24.08 23.32,24.1 23.29,24.09 	"/>
	<path d="M13.68,24.13c0.01,0.03,0.06,0.04,0.03,0.1C13.7,24.18,13.7,24.15,13.68,24.13L13.68,24.13z"/>
	<polygon points="13.5,24.5 13.54,24.52 13.5,24.53 	"/>
	<path d="M13.86,24.77c0,0.03-0.02,0.03-0.05,0.01C13.82,24.75,13.84,24.75,13.86,24.77z"/>
	<path d="M22.97,24.74C23.08,24.74,23.07,24.83,22.97,24.74L22.97,24.74z"/>
	<path d="M20.76,24.92c0-0.01-0.01-0.03-0.01-0.04C20.79,24.87,20.8,24.88,20.76,24.92z"/>
	<path d="M20.36,24.94"/>
	<path d="M15.9,25.55c0-0.03,0.02-0.03,0.04-0.01C15.94,25.57,15.93,25.57,15.9,25.55z"/>
	<path d="M20.49,25.93c-0.03-0.01-0.07-0.01-0.12-0.02C20.43,25.87,20.45,25.92,20.49,25.93L20.49,25.93z"/>
	<path d="M17.41,26.32"/>
	<path d="M27.1,4.87l-0.03-0.01C27.07,4.86,27.08,4.87,27.1,4.87L27.1,4.87z"/>
	<polygon points="26.75,5.04 26.73,5.02 26.74,5.05 	"/>
	<path d="M26.84,5.13c-0.03-0.03-0.06-0.06-0.09-0.09l-0.01,0.01C26.77,5.08,26.8,5.11,26.84,5.13L26.84,5.13z"/>
	<polygon points="26.06,5.72 26.04,5.71 26.06,5.73 	"/>
	<polygon points="26.06,5.73 26.07,5.74 26.06,5.72 	"/>
	<path d="M24.34,5.99C24.34,6,24.35,6,24.35,6L24.34,5.99L24.34,5.99z"/>
	<polygon points="27.87,6.67 27.85,6.66 27.86,6.68 	"/>
	<polygon points="27.86,6.68 27.88,6.69 27.87,6.67 	"/>
	<polygon points="9.73,7.62 9.7,7.6 9.72,7.63 	"/>
	<polygon points="9.72,7.63 9.75,7.64 9.73,7.62 	"/>
	<polygon points="24.68,7.63 24.7,7.64 24.69,7.62 	"/>
	<path d="M8.27,8.22L8.24,8.21C8.24,8.21,8.25,8.22,8.27,8.22L8.27,8.22z"/>
	<polygon points="28.38,8.22 28.36,8.2 28.38,8.23 	"/>
	<polygon points="8.26,8.23 8.29,8.24 8.27,8.22 	"/>
	<polygon points="28.38,8.23 28.4,8.24 28.38,8.22 	"/>
	<path d="M6.71,8.4c0,0,0.02,0.01,0.03,0.01C6.73,8.4,6.73,8.4,6.73,8.4H6.71z"/>
	<path d="M28.81,17.26c0.01,0,0.02,0.01,0.02,0.01L28.81,17.26L28.81,17.26z"/>
	<polygon points="27.26,18.2 27.28,18.22 27.27,18.19 	"/>
	<polygon points="4.82,19.23 4.85,19.25 4.83,19.22 	"/>
	<path d="M24.26,19.31l-0.03-0.01C24.24,19.3,24.25,19.31,24.26,19.31L24.26,19.31z"/>
	<polygon points="7.41,21.97 7.39,21.96 7.4,21.98 	"/>
	<polygon points="7.4,21.98 7.42,22 7.41,21.97 	"/>
	<polygon points="26.5,22.42 26.51,22.39 26.49,22.41 	"/>
	<path d="M9.72,23.01c0,0-0.01,0.02-0.01,0.03L9.72,23.01L9.72,23.01z"/>
	<polygon points="19.53,23.18 19.51,23.16 19.52,23.19 	"/>
	<path d="M19.62,23.26c-0.05-0.01-0.07-0.04-0.09-0.08l-0.01,0.01C19.55,23.21,19.58,23.24,19.62,23.26L19.62,23.26z"/>
	<path d="M19.7,23.35c-0.05-0.01-0.07-0.04-0.08-0.09l-0.01,0.01C19.64,23.3,19.66,23.33,19.7,23.35L19.7,23.35z"/>
	<polygon points="19.69,23.36 19.72,23.37 19.7,23.35 	"/>
	<polygon points="25.02,23.62 25.05,23.63 25.03,23.61 	"/>
	<polygon points="23.58,24.05 23.59,24.02 23.57,24.04 	"/>
	<path d="M23.57,24.04c-0.01,0.01-0.01,0.02-0.02,0.03c0.01-0.01,0.02-0.01,0.02-0.01V24.04z"/>
	<path d="M22.96,24.3c0.01,0.01,0.02,0.01,0.02,0.01L22.96,24.3L22.96,24.3z"/>
	<path d="M22.98,24.73c-0.01,0-0.02-0.01-0.02-0.01L22.98,24.73L22.98,24.73z"/>
	<path d="M19.09,24.73c0.01,0,0.02,0.01,0.02,0.01L19.09,24.73L19.09,24.73z"/>
	<path d="M21.77,24.98c-0.03-0.03-0.06-0.06-0.09-0.08l-0.01,0.01C21.7,24.94,21.73,24.96,21.77,24.98L21.77,24.98z"/>
	<polygon points="21.76,24.99 21.78,25.01 21.77,24.98 	"/>
	<path d="M15.83,25.24c-0.01-0.01-0.03-0.02-0.04-0.03C15.82,25.21,15.83,25.22,15.83,25.24L15.83,25.24z"/>
	<polygon points="15.82,25.25 15.85,25.27 15.83,25.24 	"/>
	<path d="M20.47,25.59l0.04,0.01C20.5,25.64,20.48,25.63,20.47,25.59L20.47,25.59z"/>
	<path d="M16.95,24.21c0.03,0.06,0.06,0.12,0.09,0.18c-0.12,0-0.24,0-0.39,0C16.71,24.2,16.85,24.24,16.95,24.21z"/>
</g>
</svg>
